<svg xmlns="http://www.w3.org/2000/svg" viewBox="0 0 48 48" fill="none">
  <!-- Ocean wave icon -->
  <path d="M4 24c4-4 8-4 12 0s8 4 12 0 8-4 12 0 8 4 12 0" stroke="currentColor" stroke-width="2.5" stroke-linecap="round"/>
  <path d="M4 32c4-4 8-4 12 0s8 4 12 0 8-4 12 0 8 4 12 0" stroke="currentColor" stroke-width="2.5" stroke-linecap="round" opacity="0.6"/>
  <path d="M4 40c4-4 8-4 12 0s8 4 12 0 8-4 12 0 8 4 12 0" stroke="currentColor" stroke-width="2.5" stroke-linecap="round" opacity="0.3"/>
</svg>
